<?xml version="1.0" encoding="utf-8"?>
<!-- Generator: Adobe Illustrator 18.0.0, SVG Export Plug-In . SVG Version: 6.00 Build 0)  -->
<!DOCTYPE svg PUBLIC "-//W3C//DTD SVG 1.1//EN" "http://www.w3.org/Graphics/SVG/1.1/DTD/svg11.dtd">
<svg version="1.1" id="Layer_1" xmlns="http://www.w3.org/2000/svg" xmlns:xlink="http://www.w3.org/1999/xlink" x="0px" y="0px"
	 width="176px" height="44px" viewBox="0 0 176 44" style="enable-background:new 0 0 176 44;" xml:space="preserve">
<style type="text/css">
	.st0{fill-rule:evenodd;clip-rule:evenodd;fill:#FFFFFF;}
	.st1{fill:#FFFFFF;}
</style>
<path class="st0" d="M19,23v10h4.6V23h3.3l0.8-4h-4c0,0,0-2,0-3c0-0.4,0.2-1,0.9-1c1,0,2.4,0,2.4,0v-4c0,0-2.2,0-4.5,0
	c-2,0-3.5,1.6-3.5,3.8c0,2,0,4.2,0,4.2h-3v4H19z"/>
<path class="st1" d="M72.7,22c0,3.7-3,6.7-6.7,6.7c-3.7,0-6.7-3-6.7-6.7c0-0.4,0-0.6,0.1-1H55v8.6c0,1.9,1.5,3.4,3.4,3.4h15.1
	c1.9,0,3.4-1.5,3.4-3.4V21h-4.5C72.6,21.4,72.7,21.6,72.7,22z M73.6,11H58.4c-1.9,0-3.4,1.5-3.4,3.4V18h5.6c1.2-1.7,3.2-2.7,5.4-2.7
	c2.2,0,4.2,1,5.4,2.7H77v-3.6C77,12.5,75.5,11,73.6,11z M75.2,15.2c0,0.3-0.3,0.6-0.6,0.6h-1.8c-0.3,0-0.6-0.3-0.6-0.6v-1.8
	c0-0.3,0.3-0.6,0.6-0.6h1.8c0.3,0,0.6,0.3,0.6,0.6V15.2z M70.1,22c0-2.3-1.8-4.1-4.1-4.1c-2.3,0-4.1,1.8-4.1,4.1s1.8,4.1,4.1,4.1
	C68.3,26.1,70.1,24.3,70.1,22z"/>
<path class="st1" d="M110,33c-6.1,0-11-4.9-11-11s4.9-11,11-11c6.1,0,11,4.9,11,11S116.1,33,110,33z M119.3,23.5
	c-0.3-0.1-2.9-0.9-5.9-0.4c1.2,3.4,1.7,6.1,1.8,6.7C117.4,28.4,118.9,26.1,119.3,23.5z M113.7,30.7c-0.1-0.8-0.7-3.7-2-7.1
	c0,0,0,0-0.1,0c-5.3,1.8-7.2,5.5-7.4,5.9c1.6,1.2,3.6,2,5.8,2C111.3,31.4,112.5,31.1,113.7,30.7z M103,28.3c0.2-0.4,2.8-4.6,7.6-6.2
	c0.1,0,0.2-0.1,0.4-0.1c-0.2-0.5-0.5-1.1-0.8-1.6c-4.7,1.4-9.2,1.3-9.7,1.3c0,0.1,0,0.2,0,0.3C100.6,24.4,101.5,26.6,103,28.3z
	 M100.8,20.1c0.4,0,4.3,0,8.7-1.1c-1.6-2.8-3.2-5.1-3.5-5.4C103.4,14.8,101.4,17.2,100.8,20.1z M107.8,12.9c0.3,0.3,2,2.7,3.5,5.5
	c3.3-1.3,4.8-3.2,4.9-3.4c-1.7-1.5-3.8-2.4-6.2-2.4C109.2,12.6,108.5,12.7,107.8,12.9z M117.3,16.1c-0.2,0.3-1.8,2.3-5.2,3.7
	c0.2,0.4,0.4,0.9,0.6,1.4c0.1,0.2,0.1,0.3,0.2,0.5c3.1-0.4,6.2,0.2,6.5,0.3C119.4,19.7,118.6,17.7,117.3,16.1z"/>
<path class="st1" d="M165,15.2c-0.8,0.4-1.7,0.6-2.6,0.7c0.9-0.6,1.6-1.4,2-2.5c-0.9,0.5-1.8,0.9-2.9,1.1c-0.8-0.9-2-1.4-3.3-1.4
	c-2.5,0-4.5,2-4.5,4.5c0,0.4,0,0.7,0.1,1c-3.8-0.2-7.1-2-9.3-4.7c-0.4,0.7-0.6,1.4-0.6,2.3c0,1.6,0.8,2.9,2,3.8
	c-0.7,0-1.4-0.2-2-0.6c0,0,0,0,0,0.1c0,2.2,1.6,4,3.6,4.4c-0.4,0.1-0.8,0.2-1.2,0.2c-0.3,0-0.6,0-0.8-0.1c0.6,1.8,2.2,3.1,4.2,3.1
	c-1.5,1.2-3.5,1.9-5.6,1.9c-0.4,0-0.7,0-1.1-0.1c2,1.3,4.4,2,6.9,2c8.3,0,12.8-6.9,12.8-12.8c0-0.2,0-0.4,0-0.6
	C163.6,16.9,164.4,16.1,165,15.2z"/>
</svg>
