<?xml version="1.0" encoding="utf-8"?>
<!-- Generator: Adobe Illustrator 18.1.0, SVG Export Plug-In . SVG Version: 6.00 Build 0)  -->
<!DOCTYPE svg PUBLIC "-//W3C//DTD SVG 1.1//EN" "http://www.w3.org/Graphics/SVG/1.1/DTD/svg11.dtd">
<svg version="1.1" id="Layer_1" xmlns="http://www.w3.org/2000/svg" xmlns:xlink="http://www.w3.org/1999/xlink" x="0px" y="0px"
	 viewBox="80 458 101.9 143.5" enable-background="new 80 458 101.9 143.5" xml:space="preserve">
<g>
	
		<radialGradient id="SVGID_1_" cx="-419.9836" cy="795.8732" r="9.8098" gradientTransform="matrix(14.4295 0 0 14.4295 6190.1709 -10876.499)" gradientUnits="userSpaceOnUse">
		<stop  offset="0" style="stop-color:#FFFFFF"/>
		<stop  offset="3.720000e-02" style="stop-color:#FFF7BC"/>
		<stop  offset="7.330000e-02" style="stop-color:#FFF083"/>
		<stop  offset="0.1079" style="stop-color:#FEEB54"/>
		<stop  offset="0.1407" style="stop-color:#FEE72F"/>
		<stop  offset="0.1711" style="stop-color:#FEE415"/>
		<stop  offset="0.1984" style="stop-color:#FEE206"/>
		<stop  offset="0.2198" style="stop-color:#FEE100"/>
		<stop  offset="0.2853" style="stop-color:#F8C317"/>
		<stop  offset="0.4514" style="stop-color:#EC7A26"/>
		<stop  offset="0.5668" style="stop-color:#E74328"/>
		<stop  offset="0.6209" style="stop-color:#E52128"/>
		<stop  offset="1" style="stop-color:#EB2127"/>
	</radialGradient>
	<path fill="url(#SVGID_1_)" d="M132.8,588.4c-12.9,0.4-28.4-5.2-36.4-16.1c0,0-15.3-18.7,0.9-45.2c-1.7,5.2,0,12.7,5.2,13.3
		c4.5,0.6,6.2-5,7.3-11.4c1.3-9.7,6.2-18.5,13.1-24.8c9.7-8.4,17.4-17.2,16.1-24.1c2.2,5,4.1,14.9,2.2,24.8
		c-1.5,7.8,1.3,16.6,7.3,22.2c-1.1-6.5,0.4-15.7,3.4-21.7c0.4,6.5,1.7,12.9,7.3,20.9c5.6,7.8,18.5,22.6,9.7,41.6
		C162.1,580.9,146.6,588,132.8,588.4z"/>
	
		<linearGradient id="SVGID_2_" gradientUnits="userSpaceOnUse" x1="82.2247" y1="999.0999" x2="82.2247" y2="987.6373" gradientTransform="matrix(11.1554 0 0 11.1554 -786.33 -10553.4229)">
		<stop  offset="0" style="stop-color:#FFFFFF"/>
		<stop  offset="3.720000e-02" style="stop-color:#FFF7BC"/>
		<stop  offset="7.330000e-02" style="stop-color:#FFF083"/>
		<stop  offset="0.1079" style="stop-color:#FEEB54"/>
		<stop  offset="0.1407" style="stop-color:#FEE72F"/>
		<stop  offset="0.1711" style="stop-color:#FEE415"/>
		<stop  offset="0.1984" style="stop-color:#FEE206"/>
		<stop  offset="0.2198" style="stop-color:#FEE100"/>
		<stop  offset="0.3473" style="stop-color:#F8C317"/>
		<stop  offset="0.6704" style="stop-color:#EC7A26"/>
		<stop  offset="0.8948" style="stop-color:#E74328"/>
		<stop  offset="1" style="stop-color:#E52128"/>
	</linearGradient>
	<path fill="url(#SVGID_2_)" d="M132,586.5c-13.6,0-22.4-5-27.1-10.8c-7.1-8.6-10.6-18.5-8.4-32.5c0.4,6.2,3.7,12.3,8.4,13.3
		c5,1.1,8.2-5.6,7.5-13.8s1.7-25,10.3-33.2c8.8-8.2,12.1-10.8,14-13.6c-1.3,8.4-3,16.6,2.6,24.8c5.8,9.7,11.4,16.4,10.3,25.4
		c3.7-7.8,7.5-9.5,3-21.1c5.8,7.8,17,21.7,12.3,37.5C161.9,571.9,153.5,586.5,132,586.5z"/>
	
		<linearGradient id="SVGID_3_" gradientUnits="userSpaceOnUse" x1="82.269" y1="998.7504" x2="82.269" y2="993.5875" gradientTransform="matrix(11.1554 0 0 11.1554 -786.33 -10553.4229)">
		<stop  offset="0" style="stop-color:#FFFFFF"/>
		<stop  offset="2.170000e-02" style="stop-color:#FFFFFE"/>
		<stop  offset="0.4835" style="stop-color:#FFFAE8"/>
		<stop  offset="0.6215" style="stop-color:#FFFAE6"/>
		<stop  offset="0.6947" style="stop-color:#FFFAE0"/>
		<stop  offset="0.7528" style="stop-color:#FFF9D6"/>
		<stop  offset="0.803" style="stop-color:#FFF8C8"/>
		<stop  offset="0.848" style="stop-color:#FFF7B4"/>
		<stop  offset="0.8893" style="stop-color:#FFF69C"/>
		<stop  offset="0.9278" style="stop-color:#FFF57E"/>
		<stop  offset="0.9639" style="stop-color:#FFF352"/>
		<stop  offset="0.9972" style="stop-color:#FFF200"/>
		<stop  offset="1" style="stop-color:#FFF200"/>
	</linearGradient>
	<path fill="url(#SVGID_3_)" d="M132.2,584.8c-9.5,0.4-15.7-4.7-18.9-9c-2.6-3.4-5.8-9.7-6.9-14.9c2.6,3.9,10.8,8.4,16.6,5.2
		s6-11,3.9-17.9c-2.2-6.7-5.8-21.7,1.9-33.2c-2.2,5-1.9,12.1,3.2,20c5.2,7.8,16.1,19.8,11.6,34.4c5.4-2.8,11.4-10.1,12.7-16.6
		C157.8,562,150.9,584.1,132.2,584.8z"/>
	
		<linearGradient id="SVGID_4_" gradientUnits="userSpaceOnUse" x1="82.4378" y1="997.9996" x2="82.6712" y2="992.8655" gradientTransform="matrix(11.1554 0 0 11.1554 -786.33 -10553.4229)">
		<stop  offset="0" style="stop-color:#FFFAE8"/>
		<stop  offset="0.3661" style="stop-color:#FFF33E"/>
		<stop  offset="0.4341" style="stop-color:#FFF200"/>
		<stop  offset="0.5097" style="stop-color:#FFEB00"/>
		<stop  offset="0.8104" style="stop-color:#FFDA00"/>
		<stop  offset="1" style="stop-color:#FFD400"/>
	</linearGradient>
	<path fill="url(#SVGID_4_)" d="M121,568.2c8.4-0.2,11.2-14,7.8-23.7c-0.9-3.2-1.7-8.2-1.9-9.9c2.4,4.1,4.3,5.2,8.2,11.2
		c3.9,6,9.7,14.6,3.9,28.4c5.6-2.2,9.3-4.5,14.2-10.6c-0.6,2.6-1.7,8.6-8.4,16.4c9-7.1,12.5-20.7,11.6-27.3
		c-1.3,6.2-7.3,13.6-12.7,16.6c4.3-14.9-6.5-26.7-11.6-34.4c-5.2-7.8-5.4-15.1-3.2-20c-7.8,11.4-4.1,26.5-1.9,33.2
		c2.2,6.7,1.7,14.6-3.9,17.9c-3.2,1.9-7.5,1.1-11-0.6C113.7,566.9,116.7,568.4,121,568.2z"/>
</g>
</svg>
