<?xml version="1.0" encoding="utf-8"?>
<!-- Generator: Adobe Illustrator 16.0.0, SVG Export Plug-In . SVG Version: 6.00 Build 0)  -->
<!DOCTYPE svg PUBLIC "-//W3C//DTD SVG 1.1//EN" "http://www.w3.org/Graphics/SVG/1.1/DTD/svg11.dtd">
<svg version="1.1" id="Layer_1" xmlns="http://www.w3.org/2000/svg" xmlns:xlink="http://www.w3.org/1999/xlink" x="0px" y="0px"
	 width="202.103px" height="62.04px" viewBox="12.356 7.726 202.103 62.04" enable-background="new 12.356 7.726 202.103 62.04"
	 xml:space="preserve">
<g>
	
		<radialGradient id="SVGID_1_" cx="-116.0884" cy="-221.4224" r="50.825" gradientTransform="matrix(1.2935 0 0 -1.2935 197.9636 -212.9351)" gradientUnits="userSpaceOnUse">
		<stop  offset="0" style="stop-color:#FFFFFF"/>
		<stop  offset="0.0372" style="stop-color:#FFF7BC"/>
		<stop  offset="0.0733" style="stop-color:#FFF083"/>
		<stop  offset="0.1079" style="stop-color:#FEEB54"/>
		<stop  offset="0.1407" style="stop-color:#FEE72F"/>
		<stop  offset="0.1711" style="stop-color:#FEE415"/>
		<stop  offset="0.1984" style="stop-color:#FEE206"/>
		<stop  offset="0.2198" style="stop-color:#FEE100"/>
		<stop  offset="0.2853" style="stop-color:#F8C317"/>
		<stop  offset="0.4514" style="stop-color:#EC7A26"/>
		<stop  offset="0.5668" style="stop-color:#E74328"/>
		<stop  offset="0.6209" style="stop-color:#E52128"/>
		<stop  offset="1" style="stop-color:#EB2127"/>
	</radialGradient>
	<path fill="url(#SVGID_1_)" d="M49.113,64.598c-6.046,0.152-13.25-2.367-16.927-7.455c0,0-7.054-8.666,0.402-20.958
		c-0.806,2.417-0.048,5.887,2.418,6.246c2.065,0.303,2.943-2.287,3.35-5.289c0.604-4.458,2.877-8.643,6.122-11.485
		c4.484-3.929,8.061-8.011,7.455-11.235c1.008,2.318,1.915,6.852,1.008,11.487c-0.7,3.581,0.604,7.682,3.426,10.277
		c-0.478-2.972,0.201-7.254,1.612-10.076c0.202,3.023,0.807,6.045,3.426,9.673c2.62,3.627,8.564,10.478,4.535,19.345
		C62.716,61.073,55.468,64.44,49.113,64.598z"/>
	
		<linearGradient id="SVGID_2_" gradientUnits="userSpaceOnUse" x1="254.272" y1="-288.2197" x2="254.272" y2="-228.8292" gradientTransform="matrix(1 0 0 -1 -206 -222)">
		<stop  offset="0" style="stop-color:#FFFFFF"/>
		<stop  offset="0.0372" style="stop-color:#FFF7BC"/>
		<stop  offset="0.0733" style="stop-color:#FFF083"/>
		<stop  offset="0.1079" style="stop-color:#FEEB54"/>
		<stop  offset="0.1407" style="stop-color:#FEE72F"/>
		<stop  offset="0.1711" style="stop-color:#FEE415"/>
		<stop  offset="0.1984" style="stop-color:#FEE206"/>
		<stop  offset="0.2198" style="stop-color:#FEE100"/>
		<stop  offset="0.3473" style="stop-color:#F8C317"/>
		<stop  offset="0.6704" style="stop-color:#EC7A26"/>
		<stop  offset="0.8948" style="stop-color:#E74328"/>
		<stop  offset="1" style="stop-color:#E52128"/>
	</linearGradient>
	<path fill="url(#SVGID_2_)" d="M48.709,63.741c-6.348,0-10.377-2.265-12.595-4.986c-3.266-4.008-4.937-8.613-3.88-15.114
		c0.152,2.872,1.663,5.744,3.93,6.197c2.267,0.452,3.778-2.569,3.476-6.349c-0.302-3.777,0.755-11.637,4.836-15.415
		c4.081-3.777,5.592-4.988,6.499-6.347c-0.605,3.929-1.361,7.708,1.209,11.486c2.72,4.534,5.289,7.557,4.836,11.79
		c1.663-3.629,3.476-4.386,1.36-9.826c2.721,3.628,7.859,10.125,5.743,17.381C62.614,56.94,58.714,63.741,48.709,63.741z"/>
	
		<linearGradient id="SVGID_3_" gradientUnits="userSpaceOnUse" x1="254.4937" y1="-286.4087" x2="254.4937" y2="-259.6584" gradientTransform="matrix(1 0 0 -1 -206 -222)">
		<stop  offset="0" style="stop-color:#FFFFFF"/>
		<stop  offset="0.0217" style="stop-color:#FFFFFE"/>
		<stop  offset="0.4835" style="stop-color:#FFFAE8"/>
		<stop  offset="0.6215" style="stop-color:#FFFAE6"/>
		<stop  offset="0.6947" style="stop-color:#FFFAE0"/>
		<stop  offset="0.7528" style="stop-color:#FFF9D6"/>
		<stop  offset="0.803" style="stop-color:#FFF8C8"/>
		<stop  offset="0.848" style="stop-color:#FFF7B4"/>
		<stop  offset="0.8893" style="stop-color:#FFF69C"/>
		<stop  offset="0.9278" style="stop-color:#FFF57E"/>
		<stop  offset="0.9639" style="stop-color:#FFF352"/>
		<stop  offset="0.9972" style="stop-color:#FFF200"/>
		<stop  offset="1" style="stop-color:#FFF200"/>
	</linearGradient>
	<path fill="url(#SVGID_3_)" d="M48.811,62.887c-4.432,0.154-7.254-2.218-8.766-4.233c-1.209-1.611-2.721-4.533-3.224-6.95
		c1.209,1.812,5.038,3.929,7.658,2.417c2.62-1.511,2.821-5.14,1.814-8.261c-1.008-3.126-2.722-10.078,0.906-15.418
		c-1.007,2.317-0.906,5.642,1.511,9.27c2.418,3.628,7.457,9.168,5.441,16.021c2.52-1.309,5.341-4.735,5.945-7.657
		C60.7,52.307,57.476,62.583,48.811,62.887z"/>
	
		<linearGradient id="SVGID_4_" gradientUnits="userSpaceOnUse" x1="255.3794" y1="-282.5205" x2="256.5885" y2="-255.9208" gradientTransform="matrix(1 0 0 -1 -206 -222)">
		<stop  offset="0" style="stop-color:#FFFAE8"/>
		<stop  offset="0.3661" style="stop-color:#FFF33E"/>
		<stop  offset="0.4341" style="stop-color:#FFF200"/>
		<stop  offset="0.5097" style="stop-color:#FFEB00"/>
		<stop  offset="0.8104" style="stop-color:#FFDA00"/>
		<stop  offset="1" style="stop-color:#FFD400"/>
	</linearGradient>
	<path fill="url(#SVGID_4_)" d="M43.571,55.229c3.929-0.102,5.24-6.549,3.627-10.982c-0.403-1.512-0.805-3.829-0.906-4.635
		c1.108,1.915,2.015,2.419,3.828,5.24c1.813,2.819,4.534,6.75,1.813,13.198c2.621-1.006,4.333-2.115,6.651-4.937
		c-0.328,1.245-0.786,4.026-3.866,7.619c4.229-3.31,5.817-9.58,5.376-12.658c-0.604,2.922-3.425,6.349-5.944,7.658
		c2.015-6.852-3.023-12.394-5.441-16.021c-2.417-3.627-2.519-6.952-1.511-9.27c-3.627,5.34-1.913,12.292-0.906,15.417
		c1.007,3.122,0.805,6.751-1.814,8.262c-1.534,0.884-3.482,0.525-5.077-0.29C40.243,54.558,41.585,55.279,43.571,55.229z"/>
</g>
<g>
	<path fill="#E92429" d="M84.562,48.72c-3.738-4.571-7.272-6.457-8.172-3.075c0.849-5.268,4.876-5.387,9.667,0.491
		c3.382,4.146,6.627,3.093,8.173-1.868C92.99,50.809,88.402,53.426,84.562,48.72z M82.999,37.165
		c-0.646,2.498,7.543,3.907,11.384,2.413c-5.217,4.689-13.253,2.429-13.866,0c-0.306-1.241,2.09-3.076,4.334-4.639
		C83.78,35.925,83.203,36.519,82.999,37.165z"/>
	<path fill="#E92429" d="M110.639,50.69c-0.969-0.153-1.699-2.379-2.227-6.678c-0.526-4.3-1.615-5.421-3.263-3.365
		c-1.648,2.039-2.004,4.741-1.069,8.105l-3.536,2.566c-0.083-5.54-0.832-9.023-2.225-10.467c-1.394-1.444-3.042,0.662-4.503,4.792
		c0.799-3.213,2.446-6.524,4.503-8.445c1.868,0.221,3.365,2.259,4.485,6.116c2.328-3.347,3.806-5.353,4.436-5.997
		c0.628-0.663,1.376-0.68,2.226-0.086c0.85,0.595,1.461,2.838,1.853,6.713c0.391,3.874,1.835,3.618,3.194,0.305
		C113.459,48.686,111.608,50.844,110.639,50.69z"/>
	<path fill="#E92429" d="M138.221,19.582v0.612c0,1.817-3.33,5.148-9.99,9.991h-0.307c4.571-3.976,6.865-6.372,6.865-7.187v-0.935
		c0-2.498-2.039-4.214-6.134-5.183c-0.833,0.017-1.478,0.51-1.972,1.445c0.696,0.866,0.288,4.91-1.257,12.166v0.628l7.799,0.526
		v0.306c0,1.122-2.854,1.852-8.58,2.175l-9.499,26.916l-1.105,2.668l1.717-11.641l2.65-18.13c-2.344-1.41-3.568-1.92-3.993-1.495
		l-0.306-0.323l4.774-1.087c3.06-10.96,6.798-16.448,11.216-16.448C135.52,15.215,138.221,16.881,138.221,19.582z"/>
	<path fill="#E92429" d="M130.834,48.72c-3.737-4.571-7.272-6.457-8.173-3.075c0.85-5.268,4.878-5.387,9.669,0.491
		c3.382,4.146,6.626,3.093,8.174-1.868C139.263,50.809,134.675,53.426,130.834,48.72z M129.272,37.165
		c-0.646,2.498,7.544,3.907,11.385,2.413c-5.217,4.689-13.253,2.429-13.865,0c-0.306-1.241,2.091-3.076,4.332-4.639
		C130.053,35.925,129.476,36.519,129.272,37.165z"/>
	<path fill="#E92429" d="M147.243,44.76c-2.769-4.229-5.267-4.061-7.153,0.866c2.126-8.358,5.54-10.313,8.785-5.368
		c3.263,4.943,5.692,7.544,7.272,7.834c1.275,0.203,1.954-1.056,2.04-3.79c0.085-2.736-0.73-4.299-2.414-4.689
		c-1.682-0.392-2.956,0.492-3.857,2.615c-0.221,0.341-0.406-0.051-0.339-0.322c0.85-2.124,1.393-3.67,1.648-4.638
		c0.254-0.969,1.41-1.208,3.466-0.698c2.057,0.51,3.398,1.716,4.062,3.602c0.663,1.887-0.154,4.283-2.414,7.223
		c-2.259,2.939-4.077,4.247-5.453,3.959C151.882,51.166,150.013,48.974,147.243,44.76z"/>
	<path fill="#E92429" d="M176.343,50.69c-0.969-0.153-1.699-2.379-2.226-6.678c-0.526-4.3-1.613-5.421-3.263-3.365
		c-1.647,2.039-2.005,4.741-1.07,8.105l-3.534,2.566c-0.085-5.54-0.832-9.023-2.225-10.467c-1.395-1.444-3.043,0.662-4.503,4.792
		c0.799-3.213,2.445-6.524,4.503-8.445c1.868,0.221,3.363,2.259,4.485,6.116c2.328-3.347,3.806-5.353,4.434-5.997
		c0.63-0.663,1.377-0.68,2.228-0.086c0.849,0.595,1.461,2.838,1.852,6.713c0.392,3.874,1.834,3.618,3.194,0.305
		C179.166,48.686,177.312,50.844,176.343,50.69z"/>
	<path fill="#E92429" d="M184.901,37.93c0.884-0.73,2.073-0.832,3.553-0.289c1.494,0.544,2.735,1.784,3.704,3.703
		c0.968,1.921,0.509,4.301-1.411,7.173c-1.92,2.871-4.061,3.67-6.439,2.395c-2.38-1.273-3.875-2.786-4.486-4.503
		c-0.627-1.732-0.152-3.398,1.41-4.979C182.793,39.832,184.018,38.66,184.901,37.93z M184.935,47.632
		c1.411,1.478,2.721,2.226,3.925,2.226c1.207-0.018,1.717-1.205,1.514-3.585c-0.187-2.379-1.155-4.247-2.872-5.591
		c-1.717-1.342-3.11-1.562-4.146-0.628c-1.035,0.935-1.375,2.055-1.035,3.382C182.658,44.743,183.526,46.153,184.935,47.632z"/>
</g>
</svg>
