<?xml version="1.0" encoding="UTF-8"?>
<svg width="100pt" height="100pt" version="1.1" viewBox="0 0 100 100" xmlns="http://www.w3.org/2000/svg">
 <path d="m20.875 56.363c0 16.105 13.039 29.133 29.121 29.133 16.094 0 29.129-13.027 29.129-29.133 0-4.4648-1.0156-8.707-2.8242-12.512-4.75-9.8125-12.922-15.77-20.285-22.25-7.3438-6.4922-1.8398-16.105-1.8398-16.105-25.465 18.215-18.48 38.051-17.293 43.945-7.2461-3.5703-6.1641-18.113-6.1641-18.113-0.074219 0.074219-0.15625 0.125-0.21875 0.19922-7.5859 6.8516-8.9922 18.469-8.9922 18.469-0.51953 3.6172-0.63281 6.3672-0.63281 6.3672zm47.211 10.613c-4.793 8.582-21.391 14.203-32.715 3.3164 4.5391-1.0156 15.137-4.3906 17.945-17.293 0 0 2.3711 8.6992-2.5977 14.547 5.8438-3.75 17.156-13.688 5.9805-31.863 5.9219 2.9688 21.473 13.285 11.387 31.293z"/>
</svg>
